# xmcd
# Track frame offsets:
# 150
# 14685
# 24722
# 33062
# 37947
# 44925
# 57285
# 67895
# 80495
# 98042
# 113117
# 125165
# 141302
# 164540
# 192240
# 209245
# 223890
# 241775
# 262535
# 274065
# 289875
# 310560
#
# Disc length: 4489 seconds
# Revision: 0
# Processed by: cddbd v1.4PL0 Copyright (c) Steve Scherf et al.
# Submitted via: VisiTrax 2.9.3.170 - For more info visit www.synapsa.com
#
DISCID=49118716
DTITLE=Glen Campbell - The Magic of Glen Campbell
DYEAR=1991
DGENRE=Country
TTITLE0=Rhinestone Cowboy
TTITLE1=Gentle on My Mind
TTITLE2=Wichita Lineman
TTITLE3=Galveston
TTITLE4=Country Boy (You Got Your Feet in LA)
TTITLE5=By the Time I Get to Phoenix
TTITLE6=Dreams of an Everyday Housewife
TTITLE7=Heartache No 3
TTITLE8=Please Come to Boston
TTITLE9=Trials and Tribulations
TTITLE10=Its Only Make Believe
TTITLE11=Crying
TTITLE12=Blue Grass Medley
TTITLE13=Milk Cow Blues
TTITLE14=Rollin' (in My Sweet Baby's Arms)
TTITLE15=I'm So Lonesome I Could Cry
TTITLE16=Southern Nights
TTITLE17=Aming Grace
TTITLE18=Try A Little Kindness
TTITLE19=In Your Loving Arms Again
TTITLE20=Its your World Girls and Boys
TTITLE21=Mull of Kintyre
EXTD=
EXTT0=
EXTT1=
EXTT2=
EXTT3=
EXTT4=
EXTT5=
EXTT6=
EXTT7=
EXTT8=
EXTT9=
EXTT10=
EXTT11=
EXTT12=
EXTT13=
EXTT14=
EXTT15=
EXTT16=
EXTT17=
EXTT18=
EXTT19=
EXTT20=
EXTT21=
PLAYORDER=
